# xmcd
#
# Track frame offsets:
#	150
#	15302
#	29643
#	42013
#	52670
#	71588
#	81791
#	95136
#	104817
#	117717
#	137331
#	148496
#	160197
#	173125
#	188260
#	202058
#	214080
#	225614
#	236187
#	247769
#
# Disc length: 3472 seconds
# Revision: 0
# Processed by: cddbd v1.5.2PL0 Copyright (c) Steve Scherf et al.
# Submitted via: dBpowerAMP V12.0
#
DISCID=180d8e14
DTITLE=Tammy Wynette - You And Me and Let's Get Together
DYEAR=2017
DGENRE=Country
TTITLE0=You And Me
TTITLE1=Every Now And Then
TTITLE2=Funny Face
TTITLE3=The Haiwaiian Wedding Song (Ke Kali Nei Au)
TTITLE4=Little Things
TTITLE5=Jesus Send A Song
TTITLE6=One Of These Days
TTITLE7=You Hurt The Love Right Out Of Me
TTITLE8=When Love Was All We Had
TTITLE9=Dixieland (You Will Never Die)
TTITLE10=Let's Get Together (One Last Time)
TTITLE11=If We Never Love Again
TTITLE12=Loving You, I Do
TTITLE13=It's Gonna Take A Long, Long Time
TTITLE14=You Could Be Coming To Me
TTITLE15=Your Sweet Lies (Turned Down My Sheets Again)
TTITLE16=Cheatin' Is
TTITLE17=I Can Love You
TTITLE18=No One Can Take His Place
TTITLE19=I Can Still Believe In You
EXTD=
EXTT0=
EXTT1=
EXTT2=
EXTT3=
EXTT4=
EXTT5=
EXTT6=
EXTT7=
EXTT8=
EXTT9=
EXTT10=
EXTT11=
EXTT12=
EXTT13=
EXTT14=
EXTT15=
EXTT16=
EXTT17=
EXTT18=
EXTT19=
PLAYORDER=
